#!OML:ASF I:\Actors\actors\Patient Classification 2\Patient 1\Session 1\actor1.ASF
:FULLY-SPECIFIED
:DEGREES
120
root -1.16884 18.0869 5.73209 -2.85923 6.0016 -5.43486
lowerback 4.50551 3.90674 4.44043
upperback -0.143109 5.42289 -0.82058
thorax -2.17644 2.6526 -3.64513
lowerneck -12.3608 -7.33736 -6.68062
upperneck 16.3104 -9.94933 6.5272
head 7.72861 -4.58636 2.1638
rclavicle 3.81418e-015 -8.74653e-015
rhumerus -3.50944 15.6393 -60.6387
rradius 73.9127
rwrist 34.411
rhand -38.1824 -37.9552
rfingers 7.12502
rthumb -11.2152 -67.6355
lclavicle 3.81418e-015 -8.74653e-015
lhumerus -39.6181 -0.61457 76.5214
lradius 55.0144
lwrist 7.01008
lhand -4.15213 -21.2139
lfingers 7.12502
lthumb 21.6079 7.60054
rfemur 13.1629 7.77095 24.5864
rtibia 0
rfoot -29.0737 -20.8304
rtoes 5.76771
lfemur 20.4595 -10.6851 -11.7536
ltibia -22.578
lfoot 0.898162 16.1023
ltoes -11.7843
121
root -1.16834 18.0878 5.74709 -2.84729 6.96118 -5.44856
lowerback 4.62311 3.94029 4.37396
upperback -0.170422 5.46835 -0.888494
thorax -2.26572 2.67274 -3.69141
lowerneck -12.3367 -7.58385 -7.06313
upperneck 16.3487 -10.2623 6.76146
head 7.79316 -4.73702 2.2627
rclavicle -2.22763e-014 -2.38542e-015
rhumerus -2.57787 16.5657 -58.6428
rradius 73.7806
rwrist 33.8764
rhand -37.6653 -38.1033
rfingers 7.12502
rthumb -10.7164 -67.81
lclavicle -2.22763e-014 -2.38542e-015
lhumerus -39.6724 -0.885958 76.0542
lradius 55.3354
lwrist 7.4055
lhand -4.95881 -20.8083
lfingers 7.12502
lthumb 20.833 8.0932
rfemur 13.2207 6.82489 24.5095
rtibia 2.22639e-014
rfoot -29.1577 -20.732
rtoes 6.1349
lfemur 20.3608 -11.1091 -11.7346
ltibia -22.9182
lfoot 1.40746 15.6745
ltoes -12.1906
122
root -1.1673 18.0864 5.76373 -2.86995 8.0248 -5.52354
lowerback 4.72953 3.93851 4.36401
upperback -0.167491 5.46938 -0.920284
thorax -2.31996 2.67171 -3.72734
lowerneck -12.2576 -7.83848 -7.34573
upperneck 16.3203 -10.598 6.95432
head 7.82185 -4.89832 2.33145
rclavicle 6.54126e-014 -1.03368e-014
rhumerus -1.97077 16.9592 -57.0393
rradius 73.7834
rwrist 34.059
rhand -37.6288 -37.3846
rfingers 7.12502
rthumb -10.6813 -67.0931
lclavicle 6.54126e-014 -1.03368e-014
lhumerus -39.7306 -1.04597 75.5913
lradius 55.534
lwrist 7.50528
lhand -5.68086 -20.3364
lfingers 7.12502
lthumb 20.1391 8.6397
rfemur 13.3283 5.7671 24.5012
rtibia -7.95139e-015
rfoot -29.2062 -20.6233
rtoes 6.62495
lfemur 20.2849 -11.5883 -11.6401
ltibia -23.2697
lfoot 1.85656 15.2128
ltoes -11.8108
123
root -1.16312 18.0838 5.78175 -2.92829 9.10521 -5.62722
lowerback 4.81407 3.94591 4.43635
upperback -0.145453 5.48575 -0.958933
thorax -2.33245 2.67892 -3.81375
lowerneck -12.1022 -8.13617 -7.64026
upperneck 16.307 -10.9928 7.12238
head 7.84764 -5.09235 2.38868
rclavicle 1.32316e-014 7.95139e-016
rhumerus -1.74822 16.7427 -55.9476
rradius 73.7504
rwrist 35.0895
rhand -37.8445 -36.5553
rfingers 7.12502
rthumb -10.8893 -66.2529
lclavicle 1.32316e-014 7.95139e-016
lhumerus -39.7921 -1.07431 75.1119
lradius 55.609
lwrist 7.29699
lhand -6.38554 -20.0047
lfingers 7.12502
lthumb 19.4617 9.04131
rfemur 13.4836 4.69175 24.5138
rtibia -7.95139e-015
rfoot -29.2166 -20.5237
rtoes 7.11804
lfemur 20.2243 -11.9702 -11.5256
ltibia -23.6035
lfoot 2.37949 14.6218
ltoes -11.8941
124
root -1.1552 18.0808 5.80005 -3.02439 10.1477 -5.72199
lowerback 4.89677 3.98131 4.51829
upperback -0.0896522 5.53941 -0.99551
thorax -2.30455 2.7065 -3.90329
lowerneck -11.9318 -8.4413 -7.92275
upperneck 16.2946 -11.3822 7.18989
head 7.86559 -5.29256 2.4119
rclavicle -6.8121e-014 -1.19271e-014
rhumerus -1.84317 15.8673 -55.3942
rradius 73.4682
rwrist 36.8568
rhand -38.0875 -35.7907
rfingers 7.12502
rthumb -11.1236 -65.4759
lclavicle -6.8121e-014 -1.19271e-014
lhumerus -39.8499 -1.03746 74.6328
lradius 55.6182
lwrist 7.09518
lhand -6.88709 -19.6968
lfingers 7.12502
lthumb 18.9794 9.39723
rfemur 13.6724 3.65919 24.4973
rtibia 2.54444e-014
rfoot -29.22 -20.436
rtoes 7.38824
lfemur 20.2165 -12.3658 -11.458
ltibia -23.9335
lfoot 2.89719 14.0546
ltoes -12.5497
125
root -1.14662 18.078 5.8187 -3.15808 11.1788 -5.80219
lowerback 5.03501 4.04025 4.56669
upperback -0.0137458 5.62489 -1.02814
thorax -2.28704 2.75048 -3.97553
lowerneck -11.7111 -8.74242 -8.05527
upperneck 16.1641 -11.7693 7.14566
head 7.82025 -5.49558 2.37884
rclavicle -1.56543e-015 7.95139e-016
rhumerus -1.17519 15.6794 -54.1425
rradius 72.8941
rwrist 37.5817
rhand -38.2905 -35.8029
rfingers 7.12502
rthumb -11.3194 -65.4774
lclavicle -1.56543e-015 7.95139e-016
lhumerus -40.0014 -1.15019 74.1818
lradius 55.7406
lwrist 7.27873
lhand -7.17672 -19.3301
lfingers 7.12502
lthumb 18.7008 9.79099
rfemur 13.8954 2.63746 24.4623
rtibia 6.36111e-015
rfoot -29.2026 -20.41
rtoes 7.34059
lfemur 20.2516 -12.8093 -11.4195
ltibia -24.2477
lfoot 3.35047 13.5375
ltoes -12.915
126
root -1.13848 18.0764 5.83859 -3.27722 12.1991 -5.8684
lowerback 5.22054 4.12717 4.56538
upperback 0.0347068 5.74758 -1.05916
thorax -2.3253 2.81135 -4.02635
lowerneck -11.4946 -9.03248 -8.27904
upperneck 16.1086 -12.1733 7.32511
head 7.82298 -5.6911 2.42943
rclavicle 4.35835e-014 -7.15625e-015
rhumerus -0.548638 15.6788 -52.6044
rradius 72.3784
rwrist 37.8
rhand -38.7876 -36.0887
rfingers 7.12502
rthumb -11.7988 -65.7364
lclavicle 4.35835e-014 -7.15625e-015
lhumerus -40.2895 -1.29988 73.7476
lradius 56.0379
lwrist 7.71412
lhand -7.26911 -18.9445
lfingers 7.12502
lthumb 18.612 10.1851
rfemur 14.1103 1.62568 24.4193
rtibia -1.74931e-014
rfoot -29.1658 -20.4406
rtoes 7.2422
lfemur 20.2537 -13.2395 -11.3787
ltibia -24.5289
lfoot 3.77968 13.0362
ltoes -12.7617
127
root -1.12888 18.075 5.85951 -3.36175 13.2175 -5.91362
lowerback 5.39358 4.23552 4.54707
upperback 0.0706138 5.89706 -1.10207
thorax -2.36709 2.88541 -4.08151
lowerneck -11.3324 -9.32587 -8.74794
upperneck 16.2193 -12.6083 7.82158
head 7.93313 -5.88384 2.61162
rclavicle -1.58282e-014 -7.95139e-016
rhumerus 0.119005 15.3826 -51.3085
rradius 71.5975
rwrist 37.911
rhand -39.4611 -36.2787
rfingers 7.12502
rthumb -12.4482 -65.888
lclavicle -1.58282e-014 -7.95139e-016
lhumerus -40.4316 -0.572116 73.129
lradius 55.9028
lwrist 7.37143
lhand -6.93233 -18.8766
lfingers 7.12502
lthumb 18.9359 10.2217
rfemur 14.3067 0.621328 24.3476
rtibia -1.11319e-014
rfoot -29.169 -20.4348
rtoes 7.2658
lfemur 20.2262 -13.7088 -11.3591
ltibia -24.7832
lfoot 4.17352 12.5769
ltoes -12.7142
128
root -1.11849 18.0747 5.88132 -3.41087 14.2539 -5.89464
lowerback 5.51409 4.3473 4.49972
upperback 0.139251 6.045 -1.19202
thorax -2.34343 2.96165 -4.16282
lowerneck -11.1258 -9.63815 -9.1552
upperneck 16.2366 -13.0661 8.24709
head 8.00201 -6.09287 2.76034
rclavicle 3.39922e-014 -6.36111e-015
rhumerus 0.433364 14.2125 -50.8572
rradius 70.519
rwrist 38.3638
rhand -40.1818 -36.2408
rfingers 7.12502
rthumb -13.1431 -65.8066
lclavicle 3.39922e-014 -6.36111e-015
lhumerus -40.7785 -0.0231773 72.5383
lradius 56.1231
lwrist 7.23443
lhand -6.72676 -18.6281
lfingers 7.12502
lthumb 19.1336 10.4508
rfemur 14.4939 -0.391541 24.1986
rtibia -1.27222e-014
rfoot -29.176 -20.4598
rtoes 6.91142
lfemur 20.1685 -14.1192 -11.3959
ltibia -25.0176
lfoot 4.58826 12.0218
ltoes -13.2807
129
root -1.11011 18.0738 5.90393 -3.45311 15.3083 -5.91116
lowerback 5.65731 4.47237 4.4714
upperback 0.194427 6.21257 -1.29887
thorax -2.34016 3.0466 -4.27624
lowerneck -10.8026 -9.96689 -9.46977
upperneck 16.1447 -13.559 8.63471
head 8.01207 -6.3222 2.88355
rclavicle 1.18277e-013 3.97569e-015
rhumerus 0.674986 12.8021 -50.6941
rradius 69.3772
rwrist 38.2859
rhand -40.8043 -36.4905
rfingers 7.12502
rthumb -13.743 -66.0166
lclavicle 1.18277e-013 3.97569e-015
lhumerus -41.508 -1.06063 72.2912
lradius 57.4848
lwrist 8.6482
lhand -7.0036 -17.6238
lfingers 7.12502
lthumb 18.8674 11.4812
rfemur 14.6685 -1.4244 24.0871
rtibia -3.02153e-014
rfoot -29.2378 -20.4126
rtoes 6.80896
lfemur 20.0465 -14.3555 -11.3542
ltibia -25.2197
lfoot 5.085 11.2855
ltoes -14.4022
130
root -1.10511 18.0728 5.92471 -3.49123 16.3994 -5.9583
lowerback 5.93968 4.6173 4.42713
upperback 0.174086 6.41237 -1.41043
thorax -2.49004 3.14136 -4.40624
lowerneck -10.4152 -10.3372 -9.81388
upperneck 16.1027 -14.1327 9.10439
head 8.0479 -6.58623 3.02871
rclavicle 8.97016e-014 -2.14687e-014
rhumerus 0.745725 11.0531 -50.9538
rradius 68.1443
rwrist 37.5199
rhand -41.3719 -36.9985
rfingers 7.12502
rthumb -14.29 -66.4868
lclavicle 8.97016e-014 -2.14687e-014
lhumerus -41.9578 -1.76831 71.9819
lradius 58.4751
lwrist 9.71071
lhand -7.12572 -16.8623
lfingers 7.12502
lthumb 18.7499 12.254
rfemur 14.8173 -2.49518 24.0053
rtibia -3.33958e-014
rfoot -29.3742 -20.2427
rtoes 7.33757
lfemur 19.8705 -14.5384 -11.2467
ltibia -25.4043
lfoot 5.54323 10.5004
ltoes -15.0881
131
root -1.10242 18.075 5.93993 -3.40869 17.5721 -5.87923
lowerback 6.24966 4.77827 4.23012
upperback 0.121763 6.62253 -1.55418
thorax -2.70011 3.24033 -4.49274
lowerneck -9.96768 -10.7564 -10.2364
upperneck 16.0334 -14.7782 9.6311
head 8.08763 -6.8873 3.19635
rclavicle 7.95139e-016 3.18055e-015
rhumerus 0.762621 8.88342 -51.6092
rradius 66.8107
rwrist 35.7713
rhand -41.9564 -37.8788
rfingers 7.12502
rthumb -14.8531 -67.3264
lclavicle 7.95139e-016 3.18055e-015
lhumerus -42.2968 -1.74158 71.5675
lradius 59.0204
lwrist 10.0625
lhand -7.04751 -16.7489
lfingers 7.12502
lthumb 18.8251 12.3602
rfemur 14.8531 -3.62831 23.7853
rtibia 1.59028e-015
rfoot -29.4576 -20.1677
rtoes 7.36155
lfemur 19.5631 -14.8021 -11.2489
ltibia -25.603
lfoot 6.02375 9.72027
ltoes -14.9277
132
root -1.10165 18.0794 5.94946 -3.29181 18.8076 -5.86897
lowerback 6.58845 4.93112 4.10221
upperback 0.0925379 6.82582 -1.69695
thorax -2.89537 3.33593 -4.61958
lowerneck -9.5162 -11.1636 -10.6581
upperneck 15.8851 -15.4158 10.2186
head 8.11158 -7.1823 3.38435
rclavicle -8.89561e-015 -2.46493e-014
rhumerus 0.828943 6.44752 -52.5348
rradius 65.4763
rwrist 32.6695
rhand -42.3188 -38.6939
rfingers 7.12502
rthumb -15.2023 -68.1154
lclavicle -8.89561e-015 -2.46493e-014
lhumerus -42.7849 -1.93186 71.2294
lradius 59.8577
lwrist 10.6381
lhand -7.16798 -16.8186
lfingers 7.12502
lthumb 18.7093 12.3016
rfemur 14.8137 -4.82771 23.6445
rtibia 3.81667e-014
rfoot -29.4855 -20.154
rtoes 6.98478
lfemur 19.1563 -15.1514 -11.1619
ltibia -25.8098
lfoot 6.56903 8.98031
ltoes -14.8034
133
root -1.10305 18.0828 5.95534 -3.27504 20.0857 -6.01684
lowerback 7.06928 5.07856 4.14758
upperback 0.0987013 7.03912 -1.83624
thorax -3.11149 3.43388 -4.85399
lowerneck -9.12963 -11.5958 -10.8665
upperneck 15.6766 -16.0956 10.7172
head 8.1129 -7.49261 3.50171
rclavicle 1.01181e-013 -2.38542e-015
rhumerus 0.605036 3.03903 -54.368
rradius 64.4089
rwrist 29.0958
rhand -42.1814 -38.8896
rfingers 7.12502
rthumb -15.0699 -68.321
lclavicle 1.01181e-013 -2.38542e-015
lhumerus -43.1864 -2.13819 70.8303
lradius 60.6292
lwrist 11.111
lhand -7.31337 -17.3878
lfingers 7.12502
lthumb 18.5694 11.7459
rfemur 14.8151 -6.08821 23.6729
rtibia 0
rfoot -29.5172 -20.0586
rtoes 7.21156
lfemur 18.7724 -15.604 -10.9188
ltibia -26.0045
lfoot 7.04547 8.34271
ltoes -15.1705
134
root -1.10416 18.0855 5.9589 -3.26806 21.3687 -6.1269
lowerback 7.5302 5.244 4.14827
upperback 0.191519 7.27128 -1.95684
thorax -3.2303 3.54672 -5.04068
lowerneck -8.74979 -12.0743 -11.1248
upperneck 15.3643 -16.8321 11.2732
head 8.10318 -7.83149 3.63546
rclavicle 1.51275e-013 4.77083e-015
rhumerus 0.538237 0.321982 -55.7846
rradius 63.6195
rwrist 23.6441
rhand -42.012 -39.6662
rfingers 7.12502
rthumb -14.9067 -69.1099
lclavicle 1.51275e-013 4.77083e-015
lhumerus -43.4677 -2.18357 70.4393
lradius 61.3219
lwrist 11.4277
lhand -7.21074 -18.384
lfingers 7.12502
lthumb 18.6681 10.7402
rfemur 14.8299 -7.34785 23.6499
rtibia -1.59028e-014
rfoot -29.5407 -19.9395
rtoes 7.8101
lfemur 18.4157 -16.1882 -10.7481
ltibia -26.2032
lfoot 7.48757 7.8708
ltoes -15.3406
